<?xml version="1.0" encoding="iso-8859-1"?>
<!-- Generator: Adobe Illustrator 16.0.0, SVG Export Plug-In . SVG Version: 6.00 Build 0)  -->
<!DOCTYPE svg PUBLIC "-//W3C//DTD SVG 1.1//EN" "http://www.w3.org/Graphics/SVG/1.1/DTD/svg11.dtd">
<svg version="1.1" id="Capa_1" xmlns="http://www.w3.org/2000/svg" xmlns:xlink="http://www.w3.org/1999/xlink" x="0px" y="0px"
	 width="327.398px" height="327.397px" viewBox="0 0 327.398 327.397" style="enable-background:new 0 0 327.398 327.397;"
	 xml:space="preserve">
<g>
	<g>
		<path d="M304.552,160.773c12.619,0,22.846,10.227,22.846,22.841c0,12.619-10.227,22.846-22.846,22.846
			c-12.614,0-22.841-10.227-22.841-22.846C281.711,171,291.938,160.773,304.552,160.773z"/>
		<path d="M204.035,110.582l14.949,7.827l-0.15-0.329C216.234,112.298,209.984,109.315,204.035,110.582z"/>
		<path d="M14.205,237.28l85.804-6.38l79.383-1.595c0.155-0.011,0.29-0.052,0.439-0.057c25.011,2.531,83.477,1.858,91.865-5.557
			c0.938-0.834,7.177-27.377,2.781-38.83c-0.249-4.252-2.537-8.301-6.483-10.631l-31.027-18.303l-19.366,16.521l2.128,1.19
			c0.114,0,0.218-0.021,0.332,0l8.932,2.071l9.74,2.253c1,0.228,1.626,1.227,1.394,2.227c-0.197,0.854-0.969,1.435-1.808,1.435
			c-0.135,0-0.285-0.011-0.419-0.042l-6.639-1.543l33.119,18.403l0.243,0.145c0.896,0.497,1.212,1.626,0.72,2.517
			c-0.497,0.901-1.626,1.222-2.521,0.726l0,0l-47.427-26.357l-0.812-0.455l-1.253-0.694l-0.146-0.554l-0.528-1.994l-1.91-7.239
			l-12.324-46.595c-0.311-1.184-0.854-2.245-1.554-3.156c-2.138-2.778-5.805-4.168-9.413-3.218
			c-2.315,0.608-4.252,2.089-5.447,4.158c-1.212,2.071-1.533,4.484-0.917,6.796l2.356,8.914l0.668,2.524l0.668,2.521l4.489,16.974
			l0.538,2.042l0.539,2.04l4.789,18.101l1.839,6.954c0.181,0.668,0.45,1.3,0.776,1.9c0.295,0.554,0.647,1.066,1.051,1.554
			c0.404,0.477,0.85,0.911,1.342,1.294c0.362,0.29,0.735,0.575,1.145,0.803l52.821,29.36l0,0c0.896,0.497,1.217,1.631,0.72,2.521
			c-0.331,0.611-0.968,0.953-1.62,0.953c-0.306,0-0.616-0.073-0.901-0.229l-52.827-29.359c-0.803-0.445-1.538-0.994-2.216-1.595
			l-11.361,9.683l-1.206-1.414l-1.207-1.413l11.418-9.735c-0.647-1.045-1.196-2.164-1.517-3.365l-2.062-7.793l-4.049-15.325
			l-19.669,18.53l-1.274-1.356l0,0l1.331,1.485c-2.333,3.6-3.208,13.889-2.985,24.048l-65.563,1.315
			c-0.241,0.005-0.479,0.016-0.717,0.036l-86.164,6.415c-7.286,0.544-12.746,6.882-12.205,14.168
			c0.513,6.954,6.315,12.246,13.17,12.246C13.537,237.321,13.871,237.301,14.205,237.28z"/>
		<path d="M186.511,107.977c1.306-0.344,2.605-0.412,3.884-0.344l-31.037-16.252c-5.59-2.925-12.451-0.758-15.346,4.787
			c-2.91,5.559-0.758,12.44,4.792,15.346l30.111,17.318l-1.419-5.354c-0.87-3.277-0.409-6.692,1.295-9.618
			C180.5,110.931,183.234,108.842,186.511,107.977z"/>
		<path d="M202.01,116.992l13.789,52.118l18.797-16.034l3.401-2.908c2.879-2.455,4.345-6.16,3.92-9.914
			c-0.419-3.759-2.672-7.047-6.021-8.798l-14.447-7.56l-21.604-11.312C200.824,113.864,201.575,115.343,202.01,116.992z"/>
	</g>
</g>
<g>
</g>
<g>
</g>
<g>
</g>
<g>
</g>
<g>
</g>
<g>
</g>
<g>
</g>
<g>
</g>
<g>
</g>
<g>
</g>
<g>
</g>
<g>
</g>
<g>
</g>
<g>
</g>
<g>
</g>
</svg>
