<svg id="Layer_1" data-name="Layer 1" xmlns="http://www.w3.org/2000/svg" viewBox="0 0 479.92 479.92"><defs><style>.cls-1{fill:#f0db86;}.cls-2{fill:#2d3b3d;}.cls-2,.cls-3,.cls-4{stroke:#1d1d1b;stroke-miterlimit:10;stroke-width:2px;}.cls-3{fill:none;}.cls-4{fill:#fff;}</style></defs><title>tshirtArtboard 1 copy</title><path class="cls-1" d="M409.83,83H70.17C47.67,95.28-1.93,123.14,0,126.38s4.93,8.47,8.54,14.87H471.27c3.61-6.4,6.59-11.61,8.54-14.87S432.29,95.29,409.83,83Z"/><path class="cls-1" d="M62.21,229.48c7.9,0,21.3-14.5,28.6-11.9.12,4.93.26,25.14.41,51.53H388.63c.13-26.39.27-46.6.38-51.53,7.3-2.6,20.7,11.9,28.6,11.9,1.68,0,6.92-7.57,13.75-18.67H48.47C55.29,221.91,60.54,229.48,62.21,229.48Z"/><path class="cls-1" d="M91.78,397H388.09c.07-17,.15-37.42.23-58.3H91.55C91.63,359.54,91.71,380,91.78,397Z"/><path class="cls-2" d="M399.51,77.38h0a753.17,753.17,0,0,0-87.2-37.5c-4.2-8.8-19.5-9-27.6-8-14.8,2-29.9,4-44.7,4.3-14.8-.3-29.9-2.3-44.7-4.3-8-1.1-23.4-.8-27.6,8-29.9,10.9-58.9,23-87.2,37.5-1.29.67-5.07,2.7-10.34,5.58H409.83C404.58,80.08,400.8,78.05,399.51,77.38Z"/><path class="cls-2" d="M48.47,210.81H431.36c12-19.55,28.91-50.05,39.91-69.56H8.55C19.56,160.76,36.46,191.26,48.47,210.81Z"/><path class="cls-2" d="M91.55,338.66H388.32c.1-24.05.2-48.73.31-69.55H91.22C91.33,289.93,91.44,314.61,91.55,338.66Z"/><path class="cls-2" d="M91.91,440.18c0,7.1,83.1,8.3,148,8.3s148-1.2,148-8.3c0-3.1.1-20,.18-43.22H91.78C91.86,420.21,91.91,437.11,91.91,440.18Z"/><path id="svg_2" data-name="svg 2" class="cls-3" d="M399.6,77.38a753.17,753.17,0,0,0-87.2-37.5c-4.2-8.8-19.5-9-27.6-8-14.8,2-29.9,4-44.7,4.3-14.8-.3-29.9-2.3-44.7-4.3-8-1.1-23.4-.8-27.6,8-29.9,10.9-58.9,23-87.2,37.5-6.8,3.5-82.9,45-80.5,49,11.3,18.8,56.6,103.1,62.2,103.1,7.9,0,21.3-14.5,28.6-11.9.4,16.8,1.1,211.4,1.1,222.6,0,7.1,83.1,8.3,148,8.3s148-1.2,148-8.3c.1-11.3.7-205.8,1.1-222.6,7.3-2.6,20.7,11.9,28.6,11.9,5.6,0,50.9-84.3,62.2-103.1,2.5-3.9-73.5-45.5-80.3-49Z"/><path class="cls-4" d="M223.37,176.72V303.2H191.81V235.39q0-14.69-.71-17.66a6.57,6.57,0,0,0-3.86-4.49q-3.17-1.53-14.11-1.52H170V197q22.89-4.92,34.77-20.25Z"/><path class="cls-4" d="M309.91,176.72V303.2H278.34V235.39q0-14.69-.7-17.66a6.59,6.59,0,0,0-3.87-4.49q-3.16-1.53-14.1-1.52h-3.12V197q22.89-4.92,34.76-20.25Z"/></svg>