<svg width="479.916" height="479.916" xmlns="http://www.w3.org/2000/svg">

 <g>
  <title>background</title>
  <rect fill="none" id="canvas_background" height="402" width="582" y="-1" x="-1"/>
 </g>
 <g>
  <title>Layer 1</title>
  <g id="svg_1">
   <path fill="#ffde37" id="svg_2" d="m399.556,77.384c-28.3,-14.5 -57.4,-26.7 -87.2,-37.5c-4.2,-8.8 -19.5,-9 -27.6,-8c-14.801,2 -29.9,4 -44.7,4.3c-14.8,-0.3 -29.9,-2.3 -44.7,-4.3c-8,-1.1 -23.4,-0.8 -27.6,8c-29.9,10.9 -58.9,23 -87.2,37.5c-6.8,3.5 -82.9,45 -80.5,49c11.3,18.8 56.6,103.1 62.2,103.1c7.9,0 21.3,-14.5 28.6,-11.9c0.4,16.8 1.1,211.4 1.1,222.6c0,7.1 83.1,8.301 148,8.301c65,0 148,-1.201 148,-8.301c0.1,-11.299 0.699,-205.8 1.1,-222.6c7.3,-2.6 20.7,11.9 28.6,11.9c5.601,0 50.9,-84.3 62.2,-103.1c2.499,-3.9 -73.501,-45.5 -80.3,-49zm-263.8,348.8l-24,0l0,-31.5l24,0l0,31.5zm80.4,-189c0,0.8 -0.7,1.5 -1.5,1.5l-23.8,0c-0.8,0 -1.5,-0.7 -1.5,-1.5l0,-59.2c0,-1.2 -1.4,-2 -2.4,-1.2c-3.5,2.5 -6.9,4.6 -10.2,6.2c-3.6,1.8 -8.1,3.6 -13.3,5.3c-1,0.3 -2,-0.4 -2,-1.5l0,-18.6c0,-0.7 0.4,-1.2 1.1,-1.5c8.5,-2.8 15.2,-6.2 20,-10.2c4.8,-3.9 8.5,-8.7 11.3,-14.3c0.3,-0.5 0.8,-0.9 1.4,-0.9l19.5,0c0.8,0 1.5,0.7 1.5,1.5l0,94.4l-0.1,0zm89.199,0c0,0.8 -0.7,1.5 -1.5,1.5l-23.8,0c-0.8,0 -1.5,-0.7 -1.5,-1.5l0,-59.2c0,-1.2 -1.4,-2 -2.4,-1.2c-3.5,2.5 -6.899,4.6 -10.2,6.2c-3.6,1.8 -8.1,3.6 -13.3,5.3c-1,0.3 -2,-0.4 -2,-1.5l0,-18.6c0,-0.7 0.4,-1.2 1.101,-1.5c8.5,-2.8 15.199,-6.2 20,-10.2c4.8,-3.9 8.5,-8.7 11.3,-14.3c0.3,-0.5 0.8,-0.9 1.399,-0.9l19.501,0c0.8,0 1.5,0.7 1.5,1.5l0,94.4l-0.101,0z"/>
  </g>
  <g id="svg_3"/>
  <g id="svg_4"/>
  <g id="svg_5"/>
  <g id="svg_6"/>
  <g id="svg_7"/>
  <g id="svg_8"/>
  <g id="svg_9"/>
  <g id="svg_10"/>
  <g id="svg_11"/>
  <g id="svg_12"/>
  <g id="svg_13"/>
  <g id="svg_14"/>
  <g id="svg_15"/>
  <g id="svg_16"/>
  <g id="svg_17"/>
 </g>
</svg>