<svg id="Layer_1" data-name="Layer 1" xmlns="http://www.w3.org/2000/svg" viewBox="0 0 479.92 479.92"><defs><style>.cls-1{fill:#80c481;}.cls-1,.cls-2,.cls-3,.cls-4{stroke:#1d1d1b;stroke-miterlimit:10;stroke-width:2px;}.cls-2{fill:none;}.cls-3{fill:#223840;}.cls-4{fill:#fff;}</style></defs><title>tshirtArtboard 1</title><path id="svg_2" data-name="svg 2" class="cls-1" d="M399.56,77.38a753.17,753.17,0,0,0-87.2-37.5c-4.2-8.8-19.5-9-27.6-8-14.81,2-29.9,4-44.7,4.3-14.8-.3-29.9-2.3-44.7-4.3-8-1.1-23.4-.8-27.6,8-29.9,10.9-58.9,23-87.2,37.5-6.8,3.5-82.9,45-80.5,49,11.3,18.8,56.6,103.1,62.2,103.1,7.9,0,21.3-14.5,28.6-11.9.4,16.8,1.1,211.4,1.1,222.6,0,7.1,83.1,8.3,148,8.3s148-1.2,148-8.3c.1-11.3.69-205.8,1.1-222.6,7.3-2.6,20.7,11.9,28.6,11.9,5.6,0,50.9-84.3,62.2-103.1,2.49-3.9-73.51-45.5-80.3-49Z"/><path class="cls-2" d="M312.36,39.88c-4.2-8.8-19.5-9-27.6-8-14.81,2-29.9,4-44.7,4.3-14.8-.3-29.9-2.3-44.7-4.3-8-1.1-23.4-.8-27.6,8-29.9,10.9-58.9,23-87.2,37.5-6.8,3.5-82.9,45-80.5,49,11.3,18.8,56.6,103.1,62.2,103.1,7.9,0,21.3-14.5,28.6-11.9.26,11.27.67,102.45.9,164.7L345.14,52.5Q328.9,45.86,312.36,39.88Z"/><path class="cls-3" d="M240,448.48c65,0,148-1.2,148-8.3.1-11.3.69-205.8,1.1-222.6,7.3-2.6,20.7,11.9,28.6,11.9,5.6,0,50.9-84.3,62.2-103.1,2.49-3.9-73.51-45.5-80.3-49-17.83-9.13-36-17.35-54.42-24.88L91.76,382.28c.12,30.6.2,54.21.2,57.9C92,447.28,175.06,448.48,240,448.48Z"/><path class="cls-4" d="M223.37,176.72V303.2H191.81V235.39q0-14.69-.71-17.66a6.57,6.57,0,0,0-3.86-4.49q-3.17-1.53-14.11-1.52H170V197q22.89-4.92,34.77-20.25Z"/><path class="cls-4" d="M309.91,176.72V303.2H278.34V235.39q0-14.69-.7-17.66a6.59,6.59,0,0,0-3.87-4.49q-3.16-1.53-14.1-1.52h-3.12V197q22.89-4.92,34.76-20.25Z"/></svg>