<?xml version="1.0" encoding="iso-8859-1"?>
<!-- Generator: Adobe Illustrator 16.0.0, SVG Export Plug-In . SVG Version: 6.00 Build 0)  -->
<!DOCTYPE svg PUBLIC "-//W3C//DTD SVG 1.1//EN" "http://www.w3.org/Graphics/SVG/1.1/DTD/svg11.dtd">
<svg version="1.1" id="Capa_1" xmlns="http://www.w3.org/2000/svg" xmlns:xlink="http://www.w3.org/1999/xlink" x="0px" y="0px"
	 width="468.261px" height="468.26px" viewBox="0 0 468.261 468.26" style="enable-background:new 0 0 468.261 468.26;"
	 xml:space="preserve">
<g>
	<g>
		<path d="M353.02,221.89c4.448-1.287,9.133-2.008,13.994-2.008c2.597,0,5.125,0.26,7.618,0.635
			c5.858,0.894,11.409,2.731,16.422,5.456l-1.987-23.267c-0.413-4.853-2.681-9.079-5.995-12.145
			c-25.98-42.254-137.242-128.308-252.774-37.895c0,0-23.598,18.667-11.596,62.031l21.315-12.173
			c4.391-2.508,9.374-3.835,14.429-3.835c1.477,0,2.968,0.12,4.429,0.339l52.952,8.173l40.503,6.252l15.172,2.338
			c7.683,1.185,14.438,5.29,19.027,11.556c4.593,6.264,6.464,13.941,5.286,21.624c-1.587,10.279-8.656,18.675-17.882,22.454
			c-0.497,0.208-1.01,0.384-1.53,0.568c-2.945,1.01-6.052,1.631-9.285,1.631c-1.495,0-3.006-0.111-4.477-0.344l-43.803-6.761
			l19.871,49.676c3.148,8.841,2.473,18.346-1.555,26.513l22.374,1.663c0.729,0.053,1.462,0.085,2.184,0.085
			c9.109,0,17.757-4.216,23.367-11.494c6.06-7.858,7.767-18.222,4.541-27.615l-10.997-31.959
			c2.112,0.714,22.165-8.363,44.987-20.302C325.1,238.056,337.519,226.368,353.02,221.89z"/>
		<polygon points="105.561,289.207 153.756,291.415 148.715,277.252 129.037,275.79 		"/>
		<path d="M468.261,282.767c0-10.376-8.407-18.775-18.774-18.775H417.09c0.269,2.108,0.449,4.244,0.449,6.424
			c0,11.742-4.056,22.53-10.8,31.126h42.747C459.854,301.542,468.261,293.138,468.261,282.767z"/>
		<path d="M367.014,314.682c12.295,0,23.419-5.037,31.446-13.141c7.91-7.99,12.804-18.983,12.804-31.126
			c0-2.188-0.217-4.323-0.521-6.424c-1.835-12.599-8.924-23.483-19.031-30.302c-7.053-4.759-15.553-7.536-24.697-7.536
			c-0.232,0-0.461,0.03-0.686,0.03c-4.444,0.072-8.732,0.777-12.771,2.058c-10.54,3.362-19.336,10.571-24.794,19.965
			c-3.799,6.532-6.016,14.099-6.016,22.201C322.747,294.861,342.564,314.682,367.014,314.682z"/>
		<path d="M0.029,318.376c-0.697,15.249,11.141,28.24,26.407,28.946l176.296,8.074c8.74,0,17.054-4.188,22.255-11.208
			c0.463-0.63,0.726-1.343,1.13-2c4.412-7.125,5.551-15.802,2.711-23.776l-14.517-36.275l-6.688-16.73l-47.574-7.342l-9.543,5.458
			l5.063,14.242l7.238,20.354l-67.419-3.103l-29.777,17.02c-4.216,2.413-8.989,3.703-13.833,3.8c-0.194,0-0.383,0.04-0.579,0.04
			c-10.417,0-20.097-5.61-25.265-14.659c-1.575-2.758-2.557-5.735-3.162-8.769C10.291,294.701,0.628,305.272,0.029,318.376z"/>
		<path d="M204.917,258.63l2.347,0.36l1.264,0.2l3.604,0.562l47.466,7.321c1.186,0.185,2.353,0.272,3.519,0.272
			c0.404,0,0.789-0.084,1.194-0.112c2.66-0.14,5.213-0.729,7.59-1.735c7.041-2.974,12.451-9.365,13.709-17.477
			c1.924-12.447-6.608-24.088-19.051-26.012l-10.287-1.587l-50.306-7.763l-13.511-2.09l-3.493-0.541l-31.042-4.791
			c-1.154-0.181-2.314-0.265-3.468-0.265c-3.947,0-7.851,1.02-11.319,3.005l-22.478,12.844l-80.795,46.17
			c-7.027,4.02-11.053,11.209-11.411,18.738c-0.05,1.042-0.028,2.084,0.068,3.134c0.096,1.046,0.323,2.072,0.555,3.098
			c0.487,2.101,1.18,4.172,2.304,6.136c3.845,6.729,10.638,10.596,17.829,11.229c0.667,0.064,1.311,0.261,1.986,0.261
			c0,0,0,0,0.006,0c3.829,0,7.724-0.966,11.289-3.006l21.179-12.102l5.087-2.906l5.085-2.913l23.992-13.718l24.988-14.282
			l2.771-1.579l2.771-1.587l10.474-5.986L204.917,258.63z"/>
	</g>
</g>
<g>
</g>
<g>
</g>
<g>
</g>
<g>
</g>
<g>
</g>
<g>
</g>
<g>
</g>
<g>
</g>
<g>
</g>
<g>
</g>
<g>
</g>
<g>
</g>
<g>
</g>
<g>
</g>
<g>
</g>
</svg>
